<mxfile host="app.diagrams.net" agent="Mozilla/5.0 (Windows NT 10.0; Win64; x64) AppleWebKit/537.36 (KHTML, like Gecko) Chrome/131.0.0.0 Safari/537.36" version="24.8.6">
  <diagram name="第 1 页" id="Benm36pr-1HBtlkhYLY8">
    <mxGraphModel dx="1434" dy="746" grid="1" gridSize="10" guides="1" tooltips="1" connect="1" arrows="1" fold="1" page="1" pageScale="1" pageWidth="827" pageHeight="1169" math="0" shadow="0">
      <root>
        <mxCell id="0" />
        <mxCell id="1" parent="0" />
        <mxCell id="6mML7si3R4gJkLBfVtjk-5" style="edgeStyle=orthogonalEdgeStyle;rounded=0;orthogonalLoop=1;jettySize=auto;html=1;entryX=0;entryY=0.5;entryDx=0;entryDy=0;" edge="1" parent="1" source="6mML7si3R4gJkLBfVtjk-1" target="6mML7si3R4gJkLBfVtjk-2">
          <mxGeometry relative="1" as="geometry" />
        </mxCell>
        <mxCell id="6mML7si3R4gJkLBfVtjk-6" style="edgeStyle=orthogonalEdgeStyle;rounded=0;orthogonalLoop=1;jettySize=auto;html=1;" edge="1" parent="1" source="6mML7si3R4gJkLBfVtjk-1" target="6mML7si3R4gJkLBfVtjk-3">
          <mxGeometry relative="1" as="geometry" />
        </mxCell>
        <mxCell id="6mML7si3R4gJkLBfVtjk-7" style="edgeStyle=orthogonalEdgeStyle;rounded=0;orthogonalLoop=1;jettySize=auto;html=1;entryX=0;entryY=0.5;entryDx=0;entryDy=0;" edge="1" parent="1" source="6mML7si3R4gJkLBfVtjk-1" target="6mML7si3R4gJkLBfVtjk-4">
          <mxGeometry relative="1" as="geometry" />
        </mxCell>
        <mxCell id="6mML7si3R4gJkLBfVtjk-1" value="&lt;font style=&quot;font-size: 16px;&quot;&gt;场景&lt;/font&gt;" style="rounded=0;whiteSpace=wrap;html=1;" vertex="1" parent="1">
          <mxGeometry x="140" y="320" width="130" height="60" as="geometry" />
        </mxCell>
        <mxCell id="6mML7si3R4gJkLBfVtjk-2" value="&lt;font style=&quot;font-size: 16px;&quot;&gt;几何体&lt;br&gt;（一个或多个3D对象）&lt;/font&gt;" style="rounded=0;whiteSpace=wrap;html=1;" vertex="1" parent="1">
          <mxGeometry x="440" y="180" width="180" height="60" as="geometry" />
        </mxCell>
        <mxCell id="6mML7si3R4gJkLBfVtjk-3" value="&lt;font style=&quot;font-size: 16px;&quot;&gt;灯光&lt;/font&gt;" style="rounded=0;whiteSpace=wrap;html=1;" vertex="1" parent="1">
          <mxGeometry x="440" y="320" width="130" height="60" as="geometry" />
        </mxCell>
        <mxCell id="6mML7si3R4gJkLBfVtjk-4" value="&lt;font style=&quot;font-size: 16px;&quot;&gt;摄像机&lt;/font&gt;&lt;div&gt;&lt;font style=&quot;font-size: 16px;&quot;&gt;（视角）&lt;/font&gt;&lt;/div&gt;" style="rounded=0;whiteSpace=wrap;html=1;" vertex="1" parent="1">
          <mxGeometry x="440" y="460" width="130" height="60" as="geometry" />
        </mxCell>
        <mxCell id="6mML7si3R4gJkLBfVtjk-8" style="edgeStyle=orthogonalEdgeStyle;rounded=0;orthogonalLoop=1;jettySize=auto;html=1;entryX=0;entryY=0.5;entryDx=0;entryDy=0;" edge="1" parent="1" source="6mML7si3R4gJkLBfVtjk-11" target="6mML7si3R4gJkLBfVtjk-12">
          <mxGeometry relative="1" as="geometry" />
        </mxCell>
        <mxCell id="6mML7si3R4gJkLBfVtjk-10" style="edgeStyle=orthogonalEdgeStyle;rounded=0;orthogonalLoop=1;jettySize=auto;html=1;entryX=0;entryY=0.5;entryDx=0;entryDy=0;" edge="1" parent="1" source="6mML7si3R4gJkLBfVtjk-11" target="6mML7si3R4gJkLBfVtjk-14">
          <mxGeometry relative="1" as="geometry" />
        </mxCell>
        <mxCell id="6mML7si3R4gJkLBfVtjk-11" value="&lt;font style=&quot;font-size: 16px;&quot;&gt;可见性问题&lt;/font&gt;" style="rounded=0;whiteSpace=wrap;html=1;" vertex="1" parent="1">
          <mxGeometry x="870" y="330" width="130" height="60" as="geometry" />
        </mxCell>
        <mxCell id="6mML7si3R4gJkLBfVtjk-12" value="&lt;span style=&quot;font-size: 16px;&quot;&gt;光线追踪&lt;/span&gt;" style="rounded=0;whiteSpace=wrap;html=1;" vertex="1" parent="1">
          <mxGeometry x="1170" y="190" width="180" height="60" as="geometry" />
        </mxCell>
        <mxCell id="6mML7si3R4gJkLBfVtjk-14" value="&lt;span style=&quot;font-size: 16px;&quot;&gt;光栅化&lt;/span&gt;" style="rounded=0;whiteSpace=wrap;html=1;" vertex="1" parent="1">
          <mxGeometry x="1170" y="470" width="130" height="60" as="geometry" />
        </mxCell>
      </root>
    </mxGraphModel>
  </diagram>
</mxfile>
